# xmcd
#
# Track frame offsets: 
#        150
#        11889
#        28086
#        43156
#        55248
#        71499
#        88254
#        103408
#        115091
#        130271
#        147582
#        160573
#        177632
#        196054
#        213783
#        232309
#        248574
#        267523
#        283845
#        306864
#        326679
#        338303
#
# Disc length: 4759 seconds
#
# Revision: 0
# Processed by: cddbd v1.5.1PL0 Copyright (c) Steve Scherf et al.
# Submitted via: ExactAudioCopy v0.95a5
#
DISCID=4f129516
DTITLE=Юрий Антонов - От Печали До Радости
DYEAR=2004
DGENRE=Retro
TTITLE0=Крыша Дома Твоего
TTITLE1=Зеркало
TTITLE2=Белый Теплоход
TTITLE3=Море
TTITLE4=На Высоком Берегу
TTITLE5=Давай Не Будем Спешить
TTITLE6=Вот Как Бывает
TTITLE7=Снегири
TTITLE8=Золотая Лестница
TTITLE9=Не Забывай
TTITLE10=Анастасия
TTITLE11=Я Иду Тебе Навстречу
TTITLE12=Переулочки Арбата
TTITLE13=А Где-то
TTITLE14=Тебе
TTITLE15=Завтра
TTITLE16=На Улице Каштановой
TTITLE17=Двадцать Лет Спустя
TTITLE18=Лунная Дорожка
TTITLE19=Не Говорите Мне Прощай
TTITLE20=Моё Богатство
TTITLE21=От Печали До Радости
EXTD=
EXTT0=
EXTT1=
EXTT2=
EXTT3=
EXTT4=
EXTT5=
EXTT6=
EXTT7=
EXTT8=
EXTT9=
EXTT10=
EXTT11=
EXTT12=
EXTT13=
EXTT14=
EXTT15=
EXTT16=
EXTT17=
EXTT18=
EXTT19=
EXTT20=
EXTT21=
PLAYORDER=
